<?xml version="1.0" encoding="UTF-8" standalone="no"?>
<!-- Created with Inkscape (http://www.inkscape.org/) -->

<svg
   width="210mm"
   height="297mm"
   viewBox="0 0 210 297"
   version="1.1"
   id="svg1135"
   inkscape:version="1.1.2 (b8e25be8, 2022-02-05)"
   sodipodi:docname="ribbon.svg"
   xmlns:inkscape="http://www.inkscape.org/namespaces/inkscape"
   xmlns:sodipodi="http://sodipodi.sourceforge.net/DTD/sodipodi-0.dtd"
   xmlns="http://www.w3.org/2000/svg"
   xmlns:svg="http://www.w3.org/2000/svg">
  <sodipodi:namedview
     id="namedview1137"
     pagecolor="#ffffff"
     bordercolor="#666666"
     borderopacity="1.0"
     inkscape:pageshadow="2"
     inkscape:pageopacity="0.0"
     inkscape:pagecheckerboard="0"
     inkscape:document-units="mm"
     showgrid="false"
     inkscape:zoom="0.51758558"
     inkscape:cx="396.06977"
     inkscape:cy="562.22587"
     inkscape:window-width="1198"
     inkscape:window-height="748"
     inkscape:window-x="242"
     inkscape:window-y="25"
     inkscape:window-maximized="0"
     inkscape:current-layer="layer1" />
  <defs
     id="defs1132" />
  <g
     inkscape:label="Layer 1"
     inkscape:groupmode="layer"
     id="layer1">
    <path
       style="fill:#4d4d4d;stroke-width:0.374247"
       d="m 164.66826,146.56606 c 0,-0.98927 0,-1.97856 0,-2.96783 -1.2828,0.46051 -2.55505,0.95126 -3.84789,1.38319 -2.56367,0.81337 -5.16639,1.51853 -7.81189,2.01084 -2.67527,0.48673 -5.4054,0.43959 -8.11319,0.45947 -4.68267,0.0127 -9.38451,-0.0583 -14.02444,-0.75258 -5.66024,-0.83273 -11.18089,-2.38572 -16.6726,-3.95374 -8.86588,-2.58576 -17.691323,-5.31603 -26.614882,-7.69998 -4.766694,-1.27148 -9.585496,-2.39218 -14.484089,-3.01756 -5.766014,-0.78346 -11.634474,-1.05796 -17.421944,-0.33495 -5.706915,0.68941 -11.273815,2.38715 -16.451751,4.87231 -1.545081,0.72559 -3.034331,1.57057 -4.608663,2.23346 -0.273613,0.0754 -0.712213,0.34849 -0.919681,0.034 -0.09241,-0.40295 -0.03812,-0.82539 -0.05797,-1.23653 -0.0076,-1.91027 0.01871,-3.82041 0.03306,-5.73059 -0.67846,0.17613 -1.375782,0.30521 -2.0064,0.62586 -1.71835,0.82139 -3.307315,1.88284 -4.878933,2.95162 -2.297566,1.58102 -4.495874,3.29875 -6.728983,4.96803 -0.07217,0.0264 -0.243745,0.25219 -0.223398,0.0931 -0.0018,-0.76631 -0.01415,-1.53468 0.09286,-2.29588 0.363555,-2.97486 0.941038,-5.91863 1.51657,-8.85827 0.720588,-3.53722 1.465509,-7.07346 2.421204,-10.55589 0.178988,-0.63316 0.368879,-1.26555 0.613149,-1.87639 -0.06198,-0.39451 -0.339363,-0.71515 -0.544639,-1.04695 -1.181454,-1.67028 -2.533003,-3.21206 -3.893041,-4.73747 -1.33303,-1.4584 -2.679951,-2.91497 -4.186694,-4.19748 -0.575807,-0.47218 -1.161005,-0.96337 -1.565256,-1.59676 -0.204617,-0.33793 0.226526,-0.61364 0.393176,-0.86464 1.221444,-1.32774 2.579804,-2.52075 3.926055,-3.71876 1.907045,-1.657505 3.836637,-3.297397 5.896459,-4.763888 2.74485,-1.84954 5.645841,-3.468809 8.658444,-4.839605 1.627549,-0.747042 3.307741,-1.370539 5.004103,-1.941418 0.791895,-0.254191 1.579653,-0.575229 2.415689,-0.641012 0.37019,-0.04754 0.753529,0.176616 0.829632,0.555192 0.181735,0.721971 0.110075,1.476512 0.128633,2.213606 0.0092,0.914646 -0.0059,1.832247 0.07477,2.744064 0.246303,0.07528 0.652178,-0.177771 0.957411,-0.229913 2.722457,-0.844698 5.419569,-1.790182 8.209684,-2.394752 3.73017,-0.846613 7.565688,-1.098731 11.381797,-1.122082 4.280131,-0.04324 8.572353,0.154921 12.803652,0.829651 5.914213,0.930301 11.701419,2.507335 17.459363,4.119117 6.061357,1.705065 12.073503,3.577719 18.113813,5.35445 6.74757,1.95079 13.54541,3.80216 20.48773,4.9223 4.55324,0.73863 9.17287,1.06338 13.78464,0.95305 4.82857,-0.0874 9.67818,-0.64077 14.31324,-2.03952 3.58969,-1.06186 7.01814,-2.60023 10.33184,-4.32906 1.02821,-0.510515 2.04712,-1.044928 3.10694,-1.487614 0.27676,0.02461 0.16717,0.548465 0.2382,0.778988 0.18463,2.100506 -0.008,4.219196 0.26215,6.313586 -0.0231,0.30305 0.18443,0.46514 0.45075,0.29725 1.00322,-0.39724 1.91635,-0.9846 2.83664,-1.5406 3.27229,-2.05627 6.41171,-4.31813 9.47677,-6.670159 0.17538,-0.252845 0.56817,-0.273056 0.51179,0.115167 0.018,0.911764 -0.11953,1.818569 -0.20776,2.724162 -0.48551,3.99972 -1.22805,7.96425 -2.06723,11.90347 -0.51658,2.3267 -1.03411,4.66001 -1.77983,6.92623 -0.14973,0.49043 -0.39072,0.94595 -0.55782,1.42906 -0.16302,0.55685 0.23416,1.05933 0.54763,1.47656 0.99149,1.22279 2.12233,2.32308 3.20885,3.45966 2.23034,2.28488 4.45995,4.57045 6.68951,6.85609 -1.4805,1.42886 -2.94523,2.87423 -4.44008,4.28807 -5.59279,5.17849 -12.25267,9.25955 -19.52047,11.60429 -1.01836,0.323 -2.03163,0.67359 -3.07481,0.90818 -0.34106,-0.0465 -0.3026,-0.53751 -0.37171,-0.80863 -0.0877,-0.7139 -0.0973,-1.43513 -0.10014,-2.15345 z"
       id="path1208"
       inkscape:export-filename="/Users/ksergi/Desktop/ribbon.png"
       inkscape:export-xdpi="96"
       inkscape:export-ydpi="96" />
  </g>
</svg>
