<?xml version="1.0" encoding="UTF-8" standalone="no"?>
<!-- Created with Inkscape (http://www.inkscape.org/) -->

<svg
   width="210mm"
   height="297mm"
   viewBox="0 0 210 297"
   version="1.1"
   id="svg5"
   inkscape:version="1.1.2 (b8e25be8, 2022-02-05)"
   sodipodi:docname="ribbon1.svg"
   inkscape:export-filename="/Users/ksergi/Desktop/banner1.png"
   inkscape:export-xdpi="96"
   inkscape:export-ydpi="96"
   xmlns:inkscape="http://www.inkscape.org/namespaces/inkscape"
   xmlns:sodipodi="http://sodipodi.sourceforge.net/DTD/sodipodi-0.dtd"
   xmlns="http://www.w3.org/2000/svg"
   xmlns:svg="http://www.w3.org/2000/svg">
  <sodipodi:namedview
     id="namedview7"
     pagecolor="#ffffff"
     bordercolor="#666666"
     borderopacity="1.0"
     inkscape:pageshadow="2"
     inkscape:pageopacity="0.0"
     inkscape:pagecheckerboard="0"
     inkscape:document-units="mm"
     showgrid="false"
     inkscape:zoom="0.58811684"
     inkscape:cx="353.67122"
     inkscape:cy="502.45118"
     inkscape:window-width="1246"
     inkscape:window-height="733"
     inkscape:window-x="194"
     inkscape:window-y="25"
     inkscape:window-maximized="0"
     inkscape:current-layer="layer1" />
  <defs
     id="defs2" />
  <g
     inkscape:label="Layer 1"
     inkscape:groupmode="layer"
     id="layer1">
    <path
       style="fill:#4d4d4d;stroke-width:0.409262"
       d="m 45.587007,193.78989 c -4.558158,-5.93672 -8.287558,-10.99868 -8.287558,-11.24881 0,-0.25014 0.445487,-1.14148 0.989969,-1.98075 1.053804,-1.62436 30.495983,-51.22882 31.925929,-53.78911 l 0.845941,-1.51465 -1.725048,-3.3965 c -0.948776,-1.86807 -3.172608,-6.15902 -4.941849,-9.53543 -5.979057,-11.41042 -9.174074,-21.311291 -9.178792,-28.443722 -0.002,-3.369768 0.115022,-3.798996 3.743529,-13.703657 2.06021,-5.623711 4.012227,-10.631497 4.337818,-11.128412 0.747886,-1.141418 3.577231,-3.068933 5.754211,-3.920104 3.265273,-1.276683 7.992508,-1.979619 13.252673,-1.970666 10.113973,0.01722 17.333579,2.47514 19.48385,6.6333 0.34444,0.666078 2.21858,5.483912 4.16475,10.706299 l 3.53851,9.495249 -0.0131,4.092621 c -0.027,8.370798 -3.15416,17.147712 -12.165738,34.145072 -2.094832,3.9512 -3.465705,6.98936 -3.323998,7.36671 0.132639,0.35323 0.949283,1.83932 1.814766,3.30242 0.865479,1.46312 5.11414,8.64567 9.44147,15.96122 4.32733,7.31557 8.83575,14.95853 10.01872,16.98438 1.18296,2.02586 4.38359,7.44829 7.1125,12.04987 2.72891,4.60158 4.95679,8.56118 4.95084,8.79913 -0.0118,0.46771 -16.25319,21.6401 -16.74435,21.82792 -0.28972,0.11075 -1.54468,-2.42326 -12.318572,-24.874 -2.862544,-5.96501 -6.942671,-14.43673 -9.066954,-18.82607 -2.124279,-4.38933 -4.479087,-9.32238 -5.232899,-10.96231 -0.753817,-1.63994 -1.512355,-2.83704 -1.685645,-2.66021 -0.27164,0.27718 -9.53226,19.27832 -15.515333,31.83468 -1.072565,2.25095 -3.920616,8.14432 -6.328997,13.0964 -2.408381,4.95207 -4.751555,9.78648 -5.207055,10.74313 -0.455501,0.95664 -0.946026,1.73276 -1.090058,1.7247 -0.144024,-0.008 -3.991275,-4.87198 -8.549432,-10.8087 z M 85.406004,99.404841 c 4.128559,-6.341903 7.001179,-11.647204 8.738017,-16.137816 1.781768,-4.606771 3.127504,-9.125017 2.811853,-9.440667 -1.110725,-1.110728 -16.657629,-1.742076 -23.445717,-0.952113 -2.696187,0.313768 -5.195415,0.558985 -5.553842,0.544924 -0.517377,-0.02029 -0.58144,0.190576 -0.310835,1.023155 0.187471,0.576796 1.003036,3.074567 1.812368,5.550603 0.809336,2.476036 2.665844,6.803983 4.125575,9.61766 2.707494,5.218777 8.213254,13.914913 8.809909,13.914913 0.181573,0 1.537278,-1.8543 3.012672,-4.120659 z"
       id="path7447"
       inkscape:export-filename="/Users/ksergi/Desktop/ribbon1.png"
       inkscape:export-xdpi="96"
       inkscape:export-ydpi="96" />
  </g>
</svg>
