<?xml version="1.0" encoding="UTF-8" standalone="no"?>
<!-- Created with Inkscape (http://www.inkscape.org/) -->

<svg
   width="210mm"
   height="297mm"
   viewBox="0 0 210 297"
   version="1.1"
   id="svg5"
   inkscape:version="1.1.2 (b8e25be8, 2022-02-05)"
   sodipodi:docname="swallowtail.svg"
   xmlns:inkscape="http://www.inkscape.org/namespaces/inkscape"
   xmlns:sodipodi="http://sodipodi.sourceforge.net/DTD/sodipodi-0.dtd"
   xmlns="http://www.w3.org/2000/svg"
   xmlns:svg="http://www.w3.org/2000/svg">
  <sodipodi:namedview
     id="namedview7"
     pagecolor="#ffffff"
     bordercolor="#666666"
     borderopacity="1.0"
     inkscape:pageshadow="2"
     inkscape:pageopacity="0.0"
     inkscape:pagecheckerboard="0"
     inkscape:document-units="mm"
     showgrid="false"
     inkscape:zoom="0.51758558"
     inkscape:cx="397.03579"
     inkscape:cy="562.22587"
     inkscape:window-width="1385"
     inkscape:window-height="716"
     inkscape:window-x="0"
     inkscape:window-y="25"
     inkscape:window-maximized="0"
     inkscape:current-layer="layer1" />
  <defs
     id="defs2" />
  <g
     inkscape:label="Layer 1"
     inkscape:groupmode="layer"
     id="layer1">
    <path
       style="fill:#4d4d4d;stroke-width:0.339591"
       d="m 18.538115,155.4187 c 0.399955,-0.50572 0.895769,-0.9288 1.351125,-1.38403 3.769405,-3.57714 7.647192,-7.03746 11.476067,-10.55034 5.317842,-4.85667 10.628323,-9.7214 15.941332,-14.58336 -6.615953,-6.04267 -13.241693,-12.07464 -19.846687,-18.1293 -2.878575,-2.6554 -5.774433,-5.29288 -8.607694,-7.99682 -0.09952,-0.13318 -0.58976,-0.45308 -0.167133,-0.39169 9.597146,-0.0734 19.194825,-0.0561 28.792192,-0.0797 47.10295,-0.0472 94.205973,-0.0689 141.308933,-0.0103 4.04331,0.0171 8.08717,-0.001 12.13017,0.0519 -0.14655,0.28104 -0.4449,0.50615 -0.66462,0.75051 -2.02273,1.9865 -4.16269,3.8483 -6.24133,5.77518 -2.69909,2.47783 -5.37837,4.9772 -8.08858,7.44294 -3.67977,3.37251 -7.39697,6.70394 -11.06665,10.08748 -0.89596,0.82058 -1.80294,1.62897 -2.70897,2.43837 1.35778,1.30468 2.72047,2.60431 4.1117,3.87345 8.24661,7.59977 16.56344,15.12289 24.82878,22.7022 0.0881,0.0811 0.17621,0.16212 0.26432,0.24317 -34.73606,0.003 -69.47213,0.009 -104.208189,0.008 -23.737731,-0.0159 -47.475651,-0.0199 -71.213111,-0.14669 -2.442745,-0.0273 -4.886803,-0.013 -7.328598,-0.0909 0.0047,0.0356 -0.06322,-0.0313 -0.06306,-0.0103 z"
       id="path854"
       inkscape:export-filename="/Users/ksergi/Desktop/swallowtail.png"
       inkscape:export-xdpi="96"
       inkscape:export-ydpi="96" />
  </g>
</svg>
